<svg xmlns="http://www.w3.org/2000/svg" xmlns:svg="http://www.w3.org/2000/svg" id="Layer_1" x="0" y="0" enable-background="new 0 0 108.6 108.6" version="1.1" viewBox="0 0 108.6 108.6" xml:space="preserve"><metadata id="metadata11"/><path id="path3" d="m 54.3,108.57823 0,0 C 24.330425,108.57823 0.02176913,84.269575 0.02176913,54.3 l 0,0 C 0.02176913,24.330425 24.330425,0.02176913 54.3,0.02176913 l 0,0 c 29.969575,0 54.27823,24.30865587 54.27823,54.27823087 l 0,0 c 0,29.969575 -24.308655,54.27823 -54.27823,54.27823 z" style="fill:#f57c00"/><circle style="opacity:1;fill:#fff;fill-opacity:1;fill-rule:nonzero;stroke:none;stroke-opacity:1" id="path8140" cx="54.3" cy="54.3" r="9.355"/><circle style="opacity:1;fill:#fff;fill-opacity:1;fill-rule:nonzero;stroke:none;stroke-opacity:1" id="path8140-9" cx="76.3" cy="54.3" r="9.355"/><circle style="opacity:1;fill:#fff;fill-opacity:1;fill-rule:nonzero;stroke:none;stroke-opacity:1" id="path8140-9-1" cx="32.3" cy="54.3" r="9.355"/><circle style="opacity:1;fill:#fff;fill-opacity:1;fill-rule:nonzero;stroke:none;stroke-opacity:1" id="path8140-9-2" cx="54.3" cy="32.3" r="9.355"/><circle style="opacity:1;fill:#fff;fill-opacity:1;fill-rule:nonzero;stroke:none;stroke-opacity:1" id="path8140-9-7" cx="76.3" cy="32.3" r="9.355"/><circle style="opacity:1;fill:#fff;fill-opacity:1;fill-rule:nonzero;stroke:none;stroke-opacity:1" id="path8140-9-0" cx="32.3" cy="32.3" r="9.355"/><circle style="opacity:1;fill:#fff;fill-opacity:1;fill-rule:nonzero;stroke:none;stroke-opacity:1" id="path8140-9-9" cx="54.3" cy="76.3" r="9.355"/><circle style="opacity:1;fill:#fff;fill-opacity:1;fill-rule:nonzero;stroke:none;stroke-opacity:1" id="path8140-9-9-3" cx="76.3" cy="76.3" r="9.355"/><circle style="opacity:1;fill:#fff;fill-opacity:1;fill-rule:nonzero;stroke:none;stroke-opacity:1" id="path8140-9-9-6" cx="32.3" cy="76.3" r="9.355"/></svg>