<svg xmlns="http://www.w3.org/2000/svg" xmlns:svg="http://www.w3.org/2000/svg" id="Layer_1" x="0" y="0" enable-background="new 0 0 108.6 108.6" version="1.1" viewBox="0 0 108.6 108.6" xml:space="preserve"><metadata id="metadata11"/><path id="path3" d="m 54.279663,108.56892 0,0 c -29.953205,0 -54.24858091,-24.295378 -54.24858091,-54.248583 l 0,0 c 0,-29.953205 24.29537591,-54.24858129 54.24858091,-54.24858129 l 0,0 c 29.953205,0 54.248577,24.29537629 54.248577,54.24858129 l 0,0 c 0,29.953205 -24.295372,54.248583 -54.248577,54.248583 z" style="fill:#f57c00"/><path id="rect17131" d="m 25.424367,50.100952 57.751264,0 c 2.326273,0 4.199049,1.872776 4.199049,4.199049 0,2.326273 -1.872776,4.199048 -4.199049,4.199048 l -57.751264,0 c -2.326272,0 -4.199048,-1.872775 -4.199048,-4.199048 0,-2.326273 1.872776,-4.199049 4.199048,-4.199049 z M 61.835275,34.299999 a 7.5352755,7.5352755 0 0 1 -7.535276,7.535276 7.5352755,7.5352755 0 0 1 -7.535275,-7.535276 7.5352755,7.5352755 0 0 1 7.535275,-7.535275 7.5352755,7.5352755 0 0 1 7.535276,7.535275 z m 0,40.000004 a 7.5352755,7.5352755 0 0 1 -7.535276,7.535276 7.5352755,7.5352755 0 0 1 -7.535275,-7.535276 7.5352755,7.5352755 0 0 1 7.535275,-7.535275 7.5352755,7.5352755 0 0 1 7.535276,7.535275 z" style="opacity:1;fill:#fff;fill-opacity:1;fill-rule:nonzero;stroke:none;stroke-opacity:1"/></svg>