<svg xmlns="http://www.w3.org/2000/svg" xmlns:svg="http://www.w3.org/2000/svg" id="Layer_1" x="0" y="0" enable-background="new 0 0 108.6 108.6" version="1.1" viewBox="0 0 108.6 108.6" xml:space="preserve"><metadata id="metadata23"/><path id="path3" d="m 54.300427,108.57823 0,0 c -29.969811,0 -54.27865806,-24.308846 -54.27865806,-54.278658 l 0,0 c 0,-29.969811 24.30884706,-54.27865832 54.27865806,-54.27865832 l 0,0 c 29.969812,0 54.278663,24.30884732 54.278663,54.27865832 l 0,0 c 0,29.969812 -24.308851,54.278658 -54.278663,54.278658 z" style="fill:#f57c00"/><g id="g5" transform="matrix(1.109993,0,0,1.109993,-5.9721934,-5.9730486)"><path id="path7" d="m 72.8,35.9 c 2.2,2.2 4,4.8 5.3,7.7 l -27.5,0 8.6,-14.9 c 1.8,0.3 3.5,0.9 5.2,1.6 3.2,1.3 6,3.2 8.4,5.6 z" style="fill:#fff"/><path id="path9" d="m 44.2,30.3 c 3.2,-1.4 6.6,-2 10.2,-2 0.9,0 1.7,0 2.6,0.1 L 43.2,52.1 34.6,37.2 c 0.4,-0.5 0.8,-0.9 1.3,-1.4 2.4,-2.3 5.2,-4.2 8.3,-5.5 z" style="fill:#fff"/><path id="path11" d="m 30.3,44.2 c 0.8,-1.8 1.7,-3.5 2.9,-5.1 l 13.7,23.8 -17.2,0 c -1,-2.7 -1.4,-5.6 -1.4,-8.6 -0.1,-3.5 0.6,-6.9 2,-10.1 z" style="fill:#fff"/><path id="path13" d="m 35.9,72.8 c -2.2,-2.2 -4,-4.8 -5.3,-7.7 l 17.8,0 0,0 9.9,0 L 49.6,80 C 47.7,79.7 45.9,79.1 44.2,78.4 41.1,77 38.3,75.1 35.9,72.8 Z" style="fill:#fff"/><path id="path15" d="m 64.5,78.3 c -3.2,1.4 -6.6,2 -10.2,2 -0.8,0 -1.6,0 -2.4,-0.1 l 8.8,-15.2 0,0 4.9,-8.6 8.5,14.7 c -0.5,0.5 -0.9,1.1 -1.4,1.6 -2.3,2.4 -5.1,4.3 -8.2,5.6 z" style="fill:#fff"/><path id="path17" d="m 78.3,64.5 c -0.7,1.7 -1.6,3.4 -2.7,4.9 L 62,45.7 l 17,0 c 1,2.7 1.4,5.6 1.4,8.6 0,3.5 -0.7,6.9 -2.1,10.2 z" style="fill:#fff"/></g></svg>