<svg xmlns="http://www.w3.org/2000/svg" xmlns:svg="http://www.w3.org/2000/svg" id="Layer_1" x="0" y="0" version="1.1" viewBox="0 0 108.6 108.6" xml:space="preserve" style="enable-background:new 0 0 108.6 108.6"><metadata id="metadata13"/><style id="style3" type="text/css">.st0{fill:#f57c00}.st1{fill:#fff}</style><path id="path5" d="m 54.393471,108.50567 0,0 c -29.925904,0 -54.19913825,-24.273237 -54.19913825,-54.199141 l 0,0 c 0,-29.925906 24.27323425,-54.19914016 54.19913825,-54.19914016 l 0,0 c 29.925906,0 54.199139,24.27323416 54.199139,54.19914016 l 0,0 c 0,29.925904 -24.273233,54.199141 -54.199139,54.199141 z" class="st0" style="fill:#f57c00"/><path id="path7" d="m 54.393471,25.378153 c -15.960481,0 -28.928374,12.967892 -28.928374,28.928376 0,15.960481 12.967893,28.928374 28.928374,28.928374 15.960484,0 28.928376,-12.967893 28.928376,-28.928374 0,-15.960484 -12.967892,-28.928376 -28.928376,-28.928376 z m 0,51.982405 c -12.746218,0 -23.164866,-10.307811 -23.164866,-23.164867 0,-12.857055 10.307811,-23.164867 23.164866,-23.164867 12.857057,0 23.164868,10.307812 23.164868,23.164867 0,12.857056 -10.418648,23.164867 -23.164868,23.164867 z m 1.440878,-37.573636 -4.322631,0 0,17.40136 15.184627,9.088609 2.216733,-3.546775 -12.967893,-7.758568 0,-15.184626 z" class="st1" style="fill:#fff"/></svg>