<svg xmlns="http://www.w3.org/2000/svg" xmlns:svg="http://www.w3.org/2000/svg" id="Layer_1" x="0" y="0" version="1.1" viewBox="0 0 108.6 108.6" xml:space="preserve" style="enable-background:new 0 0 108.6 108.6"><metadata id="metadata13"/><style id="style3" type="text/css">.st0{fill:#f57c00}.st1{fill:#fff}</style><path id="path5" d="m 54.285176,108.57823 0,0 c -29.961391,0 -54.26340687,-24.302015 -54.26340687,-54.263406 l 0,0 c 0,-29.961389 24.30201587,-54.2634051 54.26340687,-54.2634051 l 0,0 c 29.961389,0 54.263404,24.3020161 54.263404,54.2634051 l 0,0 c 0,29.961391 -24.302015,54.263406 -54.263404,54.263406 z" class="st0" style="fill:#f57c00"/><path id="path7" d="m 55.061952,53.316112 c 6.880022,0 12.539396,-5.548405 12.539396,-12.539397 0,-6.99099 -5.548405,-12.539396 -12.539396,-12.539396 -6.990991,0 -12.539397,5.548406 -12.539397,12.539396 0,6.990992 5.659374,12.539397 12.539397,12.539397 z m 0,6.214215 c -8.322608,0 -24.967825,4.216788 -24.967825,12.539396 l 0,6.214214 49.93565,0 0,-6.214214 c 0,-8.322608 -16.645217,-12.539396 -24.967825,-12.539396 z" class="st1" style="fill:#fff"/></svg>