<svg xmlns="http://www.w3.org/2000/svg" xmlns:svg="http://www.w3.org/2000/svg" id="Layer_1" x="0" y="0" enable-background="new 0 0 108.6 108.6" version="1.1" viewBox="0 0 108.6 108.6" xml:space="preserve"><metadata id="metadata11"/><path id="path3" d="m 54.3,108.52071 0,0 C 24.362185,108.52071 0.07929032,84.237815 0.07929032,54.3 l 0,0 C 0.07929032,24.362185 24.362185,0.07929032 54.3,0.07929032 l 0,0 c 29.937815,0 54.22071,24.28289468 54.22071,54.22070968 l 0,0 c 0,29.937815 -24.282895,54.22071 -54.22071,54.22071 z" style="fill:#f57c00"/><path id="path21902-6-5" d="m 52.262632,27.878569 -18.139913,0.01447 c -2.675095,-0.0078 -4.828941,0.3132 -5.181022,3.63225 0.504108,-0.05204 1.041864,-0.0661 1.603795,-0.06444 l 18.139914,-0.01485 5.542329,5.798283 22.705122,0.0091 c 3.059889,0.0013 5.03063,2.459984 5.125994,5.17849 l 3.71e-4,30.732066 c 2e-6,0.09296 -0.0023,0.183624 -0.0069,0.272609 1.680243,-0.169276 3.584497,-1.183737 3.584466,-3.840422 L 85.636055,38.864058 C 85.540689,36.145553 83.56995,33.686867 80.510061,33.68557 l -22.705122,-0.009 -5.54233,-5.797917 z M 26.640233,79.33996 c -2.519609,0.0016 -3.67703,-0.690737 -3.67703,-4.082754 0,-12.366055 0,-24.732108 0,-37.098163 0.09293,-4.033514 2.362061,-4.401777 5.229183,-4.393305 l 18.140215,-0.01453 5.542086,5.798041 22.705338,0.0092 c 3.059889,0.0013 5.030677,2.459912 5.12604,5.178416 l 3.71e-4,30.731857 c 3.5e-5,2.933622 -2.322827,3.86856 -4.100924,3.869686 0,0 -32.643559,-0.0093 -48.965271,0.0014 z" style="fill:#fff"/></svg>