<svg xmlns="http://www.w3.org/2000/svg" xmlns:svg="http://www.w3.org/2000/svg" id="Layer_1" x="0" y="0" enable-background="new 0 0 108.6 108.6" version="1.1" viewBox="0 0 108.6 108.6" xml:space="preserve"><metadata id="metadata11"/><path id="path3" d="m 54.313672,108.56891 0,0 c -29.971983,0 -54.28259001,-24.310599 -54.28259001,-54.282582 l 0,0 c 0,-29.971982 24.31060701,-54.28258965 54.28259001,-54.28258965 l 0,0 c 29.971982,0 54.282588,24.31060765 54.282588,54.28258965 l 0,0 c 0,29.971983 -24.310606,54.282582 -54.282588,54.282582 z" style="fill:#f57c00"/><polygon id="polygon5" points="34 62.1 34 75.6 47.5 75.6 47.5 62.1 47.5 54.1 54.3 60.9 61.1 54.1 61.1 62.1 61.1 75.6 74.6 75.6 74.6 62.1 74.6 48.5 74.6 35 61.1 35 54.3 41.8 47.5 35 34 35 34 48.5" transform="matrix(1.5184333,0,0,1.5184333,-28.192086,-29.654665)" style="fill:#fff"/></svg>