<svg xmlns="http://www.w3.org/2000/svg" xmlns:svg="http://www.w3.org/2000/svg" id="Layer_1" x="0" y="0" enable-background="new 0 0 108.6 108.6" version="1.1" viewBox="0 0 108.6 108.6" xml:space="preserve"><metadata id="metadata11"/><path id="path3" d="m 54.3,108.56892 0,0 C 24.335566,108.56892 0.03108209,84.264433 0.03108209,54.3 l 0,0 C 0.03108209,24.335566 24.335566,0.03108209 54.3,0.03108209 l 0,0 c 29.964434,0 54.26892,24.30448391 54.26892,54.26891791 l 0,0 c 0,29.964433 -24.304486,54.26892 -54.26892,54.26892 z" style="fill:#f57c00"/><path id="path5" d="m 77.959357,39.783572 0,0 -15.574189,-15.454387 0,0 0,0 0,0 0,0 -0.718808,0 0,0 -30.42957,0 0,56.666086 46.602765,0 0,-40.373089 0,0 0,-0.83861 z m -2.276227,0 -13.297962,0 0,-13.178161 13.297962,13.178161 z m -36.299841,-2.276228 0,-1.557419 21.44446,0 0,3.114839 -21.44446,0 0,-1.55742 z m 13.657366,34.383017 -13.657366,0 0,-1.557419 0,-1.557419 13.657366,0 0,3.114838 z m 16.772204,-9.823721 0,1.557419 -30.42957,0 0,-1.557419 0,-1.557418 30.42957,0 0,1.557418 z m 0,-8.146499 0,1.55742 -30.42957,0 0,-1.55742 0,-1.557418 30.42957,0 0,1.557418 z m 0,-8.146498 0,1.55742 -30.42957,0 0,-1.55742 0,-1.557419 30.42957,0 0,1.557419 z" style="fill:#fff"/></svg>