<svg xmlns="http://www.w3.org/2000/svg" xmlns:svg="http://www.w3.org/2000/svg" id="Layer_1" x="0" y="0" enable-background="new 0 0 108.6 108.6" version="1.1" viewBox="0 0 108.6 108.6" xml:space="preserve"><metadata id="metadata11"/><path id="path3" d="m 54.3,108.56892 0,0 C 24.335566,108.56892 0.03108209,84.264433 0.03108209,54.3 l 0,0 C 0.03108209,24.335566 24.335566,0.03108209 54.3,0.03108209 l 0,0 c 29.964434,0 54.26892,24.30448391 54.26892,54.26891791 l 0,0 c 0,29.964433 -24.304486,54.26892 -54.26892,54.26892 z" style="fill:#f57c00"/><path style="fill:#fff;fill-opacity:1" id="path4" d="m 30.274604,28.695573 c -3.302433,0 -5.973151,2.383125 -5.973151,5.292959 0,0 -0.03571,41.356693 0,44.087147 -0.345132,8.724005 14.159435,-6.064526 18.591822,-6.512605 6.098696,-0.616508 24.781814,-0.239245 35.416721,-0.539437 3.300732,-0.09307 6.00442,-2.383157 6.00442,-5.29299 l 0,-31.742115 c 0,-2.909834 -2.701993,-5.292959 -6.00442,-5.292959 z m 3.838765,10.187195 40.240586,0 c 1.122807,0 2.024924,0.902105 2.024924,2.024932 0,1.122797 -0.902117,2.024902 -2.024924,2.024902 l -40.240586,0 c -1.122806,0 -2.024929,-0.902105 -2.024929,-2.024902 0,-1.122827 0.902123,-2.024932 2.024929,-2.024932 z m 0.05474,9.045723 40.232769,0 c 1.122802,0 2.032747,0.902105 2.032747,2.024932 0,1.122798 -0.909945,2.024932 -2.032747,2.024932 l -40.232769,0 c -1.122806,0 -2.024929,-0.902134 -2.024929,-2.024932 0,-1.122827 0.902123,-2.024932 2.024929,-2.024932 z m -0.05474,9.022277 27.825183,0 c 1.12281,0 2.024933,0.909911 2.024933,2.032737 0,1.122798 -0.902123,2.024933 -2.024933,2.024933 l -27.825183,0 c -1.122806,0 -2.024929,-0.902135 -2.024929,-2.024933 0,-1.122826 0.902123,-2.032737 2.024929,-2.032737 z"/></svg>