<svg xmlns="http://www.w3.org/2000/svg" xmlns:svg="http://www.w3.org/2000/svg" id="Layer_1" x="0" y="0" enable-background="new 0 0 108.6 108.6" version="1.1" viewBox="0 0 108.6 108.6" xml:space="preserve"><metadata id="metadata11"/><path id="path3" d="m 54.294916,108.57909 0,0 c -29.967241,0 -54.27400232,-24.306765 -54.27400232,-54.274006 l 0,0 c 0,-29.967241 24.30676132,-54.27400191 54.27400232,-54.27400191 l 0,0 c 29.967241,0 54.274004,24.30676091 54.274004,54.27400191 l 0,0 c 0,29.967241 -24.306763,54.274006 -54.274004,54.274006 z" style="fill:#f57c00"/><path id="path5" d="m 54.487628,40.251972 c 1.449083,-1.844288 2.502962,-3.161637 3.820311,-4.478985 6.323273,-6.455009 13.173485,-7.508887 20.023698,-3.161637 6.586743,4.08378 9.616645,12.646546 6.850214,20.287167 -0.922145,2.37123 -2.107759,4.742455 -3.688577,6.718479 -6.718478,8.16756 -14.886039,14.754305 -23.58054,20.550636 -2.239492,1.449085 -4.478985,1.712555 -6.850212,0.131736 C 41.972817,74.371301 33.541786,67.652822 26.823309,59.22179 21.949117,53.161988 20.763504,46.18004 24.583815,39.066358 c 5.269396,-9.74838 16.862062,-11.592667 24.897889,-4.083781 1.449083,1.317349 2.898166,3.029901 5.005924,5.269395 z" style="fill:#fff"/></svg>