<svg xmlns="http://www.w3.org/2000/svg" xmlns:svg="http://www.w3.org/2000/svg" id="Layer_1" x="0" y="0" enable-background="new 0 0 108.6 108.6" version="1.1" viewBox="0 0 108.6 108.6" xml:space="preserve"><metadata id="metadata11"/><path id="path3" d="m 54.3,108.56892 0,0 C 24.335566,108.56892 0.03108209,84.264433 0.03108209,54.3 l 0,0 C 0.03108209,24.335566 24.335566,0.03108209 54.3,0.03108209 l 0,0 c 29.964434,0 54.26892,24.30448391 54.26892,54.26891791 l 0,0 c 0,29.964433 -24.304486,54.26892 -54.26892,54.26892 z" style="fill:#f57c00"/><path id="path4" d="m 54.299999,61.847892 c 6.320425,0 11.38438,-5.102031 11.38438,-11.422455 l 0.03808,-22.844909 c 0,-6.320425 -5.102029,-11.422456 -11.422453,-11.422456 -6.320425,0 -11.422455,5.102031 -11.422455,11.422456 l 0,22.844909 c 0,6.320424 5.10203,11.422455 11.422458,11.422455 z m 20.17967,-11.422455 c 0,11.422455 -9.671012,19.418172 -20.17967,19.418172 -10.508658,0 -20.202125,-7.501712 -20.202125,-18.924167 0,0 -0.0017,-3.878548 -3.154214,-3.860129 -3.152459,0.01842 -3.296055,3.366124 -3.296055,3.366124 0,12.983523 10.356359,23.720631 22.84491,25.586297 l 0,12.230753 c 0,0 -0.400599,4.15081 3.829939,4.199045 4.151848,0.04733 3.78503,-4.199045 3.78503,-4.199045 l 0,-12.230753 c 12.48855,-1.827592 22.844909,-12.564699 22.844909,-25.586297 0,0 0.01508,-3.387418 -3.118481,-3.336622 -3.200511,0.05189 -3.354243,3.336622 -3.354243,3.336622 z" style="fill:#fff"/></svg>